<svg xmlns="http://www.w3.org/2000/svg" width="20" height="18" viewBox="0 0 20 18">
  <defs>
    <style>
      .cls-1 {
        fill: #f55661;
        fill-rule: evenodd;
      }
    </style>
  </defs>
  <path id="Icon4" class="cls-1" d="M3.442,5.827A5.9,5.9,0,0,0,0,10.929a5.212,5.212,0,0,0,1.085,3.141l-0.649,2a0.4,0.4,0,0,0,.1.408,0.426,0.426,0,0,0,.42.1l2.233-.684A8.688,8.688,0,0,0,7.5,17a7.732,7.732,0,0,0,6.844-3.608,5.806,5.806,0,0,0-1.146.248,7.161,7.161,0,0,1-5.7,2.55,7.806,7.806,0,0,1-4.035-1.082,0.427,0.427,0,0,0-.345-0.042l-1.649.5,0.473-1.457a0.4,0.4,0,0,0-.07-0.371A4.469,4.469,0,0,1,.833,10.929a4.942,4.942,0,0,1,2.5-4.1c0,0.019-.022.051,0,0.056A1.892,1.892,0,0,0,3.442,5.827Zm10.9,7.565a9.116,9.116,0,0,0,2.065-.86l2.632,0.806a0.424,0.424,0,0,0,.42-0.1,0.4,0.4,0,0,0,.1-0.408L18.79,10.445A5.991,5.991,0,0,0,20,6.881C20,3.087,16.262,0,11.667,0,7.506,0,4.059,2.533,3.442,5.827a3.272,3.272,0,0,1-.105,1c0,0.019,0,.037,0,0.056,0,3.794,3.738,6.881,8.333,6.881A10.04,10.04,0,0,0,13.2,13.64m3.282-1.935a0.429,0.429,0,0,0-.345.042,8.636,8.636,0,0,1-4.468,1.205c-4.135,0-7.5-2.724-7.5-6.072S7.531,0.81,11.667.81s7.5,2.724,7.5,6.071A5.242,5.242,0,0,1,18,10.125a0.4,0.4,0,0,0-.066.367l0.6,1.84Z"/>
</svg>
