<svg xmlns="http://www.w3.org/2000/svg" width="20" height="18" viewBox="0 0 20 18">
  <defs>
    <style>
      .cls-1 {
        fill: #4e545e;
      }

      .cls-1, .cls-2 {
        fill-rule: evenodd;
      }

      .cls-2 {
        fill: #f55661;
      }
    </style>
  </defs>
  <path id="Shape2" class="cls-1" d="M1.535,10.027H3.373a0.568,0.568,0,0,1,.4.231,1.714,1.714,0,0,1,.34.844,2.726,2.726,0,0,0,.628,1.447,1.623,1.623,0,0,0,1.207.576A1.576,1.576,0,0,0,7.094,12.6a2.676,2.676,0,0,0,.651-1.351L8.4,7.9a1.47,1.47,0,0,1,.366-0.791l0.047-.034,0.235-.134H9.113a0.5,0.5,0,0,1,.394.2A1.589,1.589,0,0,1,9.855,8l1.164,7.979a2.679,2.679,0,0,0,.618,1.45,1.552,1.552,0,0,0,2.411,0,2.68,2.68,0,0,0,.62-1.45L15.386,11.1a1.708,1.708,0,0,1,.331-0.831,0.582,0.582,0,0,1,.411-0.241h1.718a0.558,0.558,0,0,0,.386-0.953,0.538,0.538,0,0,0-.384-0.164H16.128a1.691,1.691,0,0,0-1.256.637,2.866,2.866,0,0,0-.58,1.39l-0.707,4.88a1.6,1.6,0,0,1-.348.861,0.518,0.518,0,0,1-.394.212,0.538,0.538,0,0,1-.384-0.2,1.609,1.609,0,0,1-.358-0.872L10.95,7.837a2.73,2.73,0,0,0-.628-1.45,1.644,1.644,0,0,0-1.207-.566,1.62,1.62,0,0,0-1.158.515A2.671,2.671,0,0,0,7.32,7.684L6.667,11.037a1.6,1.6,0,0,1-.345.781l-0.03.034-0.3.173L5.888,12a0.6,0.6,0,0,1-.333-0.193A1.706,1.706,0,0,1,5.2,10.943a2.691,2.691,0,0,0-.583-1.4,1.637,1.637,0,0,0-1.243-.634H1.535a0.555,0.555,0,0,0-.549.559A0.548,0.548,0,0,0,1.535,10.027Z"/>
  <path id="Shape1" class="cls-2" d="M18.708,8.236H16.847a0.579,0.579,0,0,1-.408-0.228A1.667,1.667,0,0,1,16.1,7.176a2.657,2.657,0,0,0-.636-1.428,1.661,1.661,0,0,0-1.222-.569,1.614,1.614,0,0,0-1.158.516,2.613,2.613,0,0,0-.659,1.333l-0.659,3.309a1.436,1.436,0,0,1-.371.78l-0.048.034-0.238.132h-0.07a0.51,0.51,0,0,1-.4-0.2,1.546,1.546,0,0,1-.352-0.849L9.106,2.364A2.61,2.61,0,0,0,8.48.933a1.6,1.6,0,0,0-2.442,0,2.611,2.611,0,0,0-.628,1.431L4.684,7.18A1.662,1.662,0,0,1,4.349,8a0.593,0.593,0,0,1-.416.238H2.194a0.554,0.554,0,0,0-.556.551,0.544,0.544,0,0,0,.165.388,0.552,0.552,0,0,0,.389.162h1.74A1.725,1.725,0,0,0,5.2,8.711a2.79,2.79,0,0,0,.587-1.372L6.507,2.525a1.563,1.563,0,0,1,.352-0.849,0.529,0.529,0,0,1,.4-0.209,0.55,0.55,0,0,1,.389.2,1.568,1.568,0,0,1,.362.861L9.175,10.4a2.66,2.66,0,0,0,.636,1.43,1.683,1.683,0,0,0,1.222.558,1.659,1.659,0,0,0,1.172-.508,2.607,2.607,0,0,0,.646-1.33L13.512,7.24a1.564,1.564,0,0,1,.349-0.77l0.03-.033L14.2,6.265,14.3,6.29a0.611,0.611,0,0,1,.337.191A1.663,1.663,0,0,1,15,7.333a2.621,2.621,0,0,0,.591,1.381,1.672,1.672,0,0,0,1.258.625h1.861a0.554,0.554,0,0,0,.556-0.551A0.548,0.548,0,0,0,18.708,8.236Z"/>
</svg>
