<svg xmlns="http://www.w3.org/2000/svg" width="20" height="18" viewBox="0 0 20 18" fill="white">
  <defs>
    <style>
      .cls-1 {
        fill: #d9525c;
      }

      .cls-1, .cls-2 {
        fill-rule: evenodd;
      }

      .cls-2 {
        fill: #495058;
      }
    </style>
  </defs>
  <path class="cls-1" d="M15.267,14.157H4.661V13.251l1.3-1.334V9.3A3.986,3.986,0,0,1,9.127,5.332V4.95a0.838,0.838,0,1,1,1.674,0V5.332A3.987,3.987,0,0,1,13.965,9.3v2.613l1.3,1.334v0.906Zm-5.3,2.235A1.222,1.222,0,0,1,8.8,15.235h2.325A1.222,1.222,0,0,1,9.964,16.392Zm6.225-3.74-1.144-1.173V9.3a5.081,5.081,0,0,0-3.21-4.784,1.91,1.91,0,0,0-3.738,0A5.081,5.081,0,0,0,4.885,9.3v2.175L3.742,12.652a0.553,0.553,0,0,0-.159.388V14.7a0.54,0.54,0,0,0,.54.539h3.6a2.3,2.3,0,0,0,2.24,2.234,2.3,2.3,0,0,0,2.242-2.234h3.6a0.54,0.54,0,0,0,.54-0.539V13.039A0.559,0.559,0,0,0,16.189,12.652Z"/>
  <path class="cls-2" d="M13.444,2.377l-0.263.64a0.231,0.231,0,0,0,.121.3,5.2,5.2,0,0,1,3,4.457,0.23,0.23,0,0,0,.23.223l0.69,0a0.23,0.23,0,0,0,.23-0.237,6.358,6.358,0,0,0-3.705-5.5A0.229,0.229,0,0,0,13.444,2.377Zm0.873-2.133-0.261.64a0.23,0.23,0,0,0,.122.3,7.516,7.516,0,0,1,4.43,6.577,0.23,0.23,0,0,0,.23.225l0.69,0a0.231,0.231,0,0,0,.23-0.236A8.671,8.671,0,0,0,14.624.119,0.231,0.231,0,0,0,14.318.244ZM6.556,2.377l0.263,0.64a0.231,0.231,0,0,1-.121.3,5.2,5.2,0,0,0-3,4.457A0.23,0.23,0,0,1,3.465,8l-0.69,0a0.23,0.23,0,0,1-.23-0.237,6.358,6.358,0,0,1,3.705-5.5A0.229,0.229,0,0,1,6.556,2.377ZM5.682,0.244l0.261,0.64a0.23,0.23,0,0,1-.122.3,7.516,7.516,0,0,0-4.43,6.577,0.23,0.23,0,0,1-.23.225l-0.69,0A0.231,0.231,0,0,1,.24,7.743,8.671,8.671,0,0,1,5.375.119,0.231,0.231,0,0,1,5.682.244Z"/>
</svg>
