<svg id="Grup_1" data-name="Grup 1" xmlns="http://www.w3.org/2000/svg" width="20" height="18" viewBox="0 0 20 18">
  <defs>
    <style>
      .cls-1 {
        fill: #df535d;
      }

      .cls-1, .cls-2 {
        fill-rule: evenodd;
      }

      .cls-2 {
        fill: #495059;
      }
    </style>
  </defs>
  <path id="Icon3" class="cls-1" d="M18.337,4.541L9.9,12.426a0.37,0.37,0,0,1-.253.1h-2.5a0.346,0.346,0,0,1-.357-0.334V9.853a0.323,0.323,0,0,1,.1-0.236l8.442-7.885a0.86,0.86,0,0,1,1.131,0l1.876,1.752A0.712,0.712,0,0,1,18.337,4.541ZM7.5,11.856h2l-2-1.864v1.864ZM8,9.52l2,1.864,6.463-6.037-2-1.864Zm9.828-5.563L15.956,2.2a0.077,0.077,0,0,0-.12,0l-0.864.807,2,1.864,0.864-.807A0.076,0.076,0,0,0,17.832,3.956Zm0.505,0.584L9.9,12.426"/>
  <path id="Icon3-2" data-name="Icon3" class="cls-2" d="M2.139,2.531V15.484a0.35,0.35,0,0,0,.357.341H16.075a0.35,0.35,0,0,0,.357-0.341V9.008h0.715v6.477a1.049,1.049,0,0,1-1.072,1.023H2.5a1.049,1.049,0,0,1-1.072-1.023V2.531A1.049,1.049,0,0,1,2.5,1.508h9.648V2.19H2.5A0.35,0.35,0,0,0,2.139,2.531ZM17.147,9.008v6.477"/>
</svg>
