<svg xmlns="http://www.w3.org/2000/svg" width="20" height="18" viewBox="0 0 20 18">
  <defs>
    <style>
      .cls-1 {
        fill: #495059;
      }

      .cls-1, .cls-2 {
        fill-rule: evenodd;
      }

      .cls-2 {
        fill: #df535d;
      }
    </style>
  </defs>
  <path id="Shape2" class="cls-1" d="M17.909,11.271h-0.9v-8.7h0.9a0.685,0.685,0,0,0,0-1.369H2.1a0.685,0.685,0,0,0,0,1.369H3v8.7H2.1a0.685,0.685,0,0,0,0,1.369h5.57c-0.014.012-.029,0.021-0.042,0.035L4.689,15.621a0.693,0.693,0,0,0,0,.969,0.67,0.67,0,0,0,.955,0l2.935-2.945a0.693,0.693,0,0,0,0-.97c-0.014-.015-0.031-0.025-0.046-0.038h2.942c-0.016.013-.032,0.024-0.047,0.039a0.692,0.692,0,0,0,0,.968l2.935,2.946a0.669,0.669,0,0,0,.955-0.005,0.691,0.691,0,0,0,0-.968l-2.934-2.945h0c-0.013-.013-0.028-0.023-0.042-0.035h5.568A0.685,0.685,0,0,0,17.909,11.271Zm-2.249-8.7v8.7H4.347v-8.7H15.66Z"/>
  <path id="Shape1" class="cls-2" d="M6.556,8.6L8.709,6.653,10.9,8.782A0.77,0.77,0,0,0,11.441,9l0.051,0a0.774,0.774,0,0,0,.518-0.248l1.649-1.8a0.787,0.787,0,0,0,.435.13,0.766,0.766,0,0,0,.76-0.77L14.844,5.36A0.762,0.762,0,0,0,14.593,4.8a0.786,0.786,0,0,0-.583-0.2l-0.96.08a0.766,0.766,0,0,0-.523.268,0.754,0.754,0,0,0-.007.972L11.409,7.141,9.264,5.06a0.773,0.773,0,0,0-1.057-.018L5.519,7.477a0.758,0.758,0,0,0-.049,1.076A0.777,0.777,0,0,0,6.556,8.6Z"/>
</svg>
